<?xml version="1.0" encoding="UTF-8"?>
<svg id="Layer_1" data-name="Layer 1" xmlns="http://www.w3.org/2000/svg" viewBox="0 0 88.04 58.58">
  <defs>
    <style>
      .cls-1, .cls-2 {
        fill: #fff;
      }

      .cls-3 {
        fill: none;
      }

      .cls-2 {
        font-family: Roboto-Light, Roboto;
        font-size: 52px;
        font-weight: 300;
      }
    </style>
  </defs>
  <g>
    <circle class="cls-3" cx="44.02" cy="28.33" r="26"/>
    <path class="cls-1" d="M44.02,4.44c13.17,0,23.89,10.72,23.89,23.89s-10.72,23.89-23.89,23.89-23.89-10.72-23.89-23.89S30.85,4.44,44.02,4.44M44.02,2.33c-14.36,0-26,11.64-26,26s11.64,26,26,26,26-11.64,26-26S58.38,2.33,44.02,2.33h0Z"/>
  </g>
  <text class="cls-2" transform="translate(0 44.48)"><tspan x="0" y="0">{</tspan></text>
  <text class="cls-2" transform="translate(88.04 44.48) rotate(-180) scale(1 -1)"><tspan x="0" y="0">{</tspan></text>
  <g>
    <g>
      <g>
        <circle class="cls-3" cx="44.09" cy="15.42" r="7.73"/>
        <path class="cls-1" d="M44.09,9.79c3.1,0,5.62,2.52,5.62,5.62s-2.52,5.62-5.62,5.62-5.62-2.52-5.62-5.62,2.52-5.62,5.62-5.62M44.09,7.69c-4.27,0-7.73,3.46-7.73,7.73s3.46,7.73,7.73,7.73,7.73-3.46,7.73-7.73-3.46-7.73-7.73-7.73h0Z"/>
      </g>
      <path class="cls-1" d="M42.06,12.67l1.3,4.35,1.29-4.35h1.37v5.99h-1.04v-1.64l.1-2.83-1.36,4.47h-.71l-1.36-4.46.1,2.82v1.64h-1.04v-5.99h1.36Z"/>
    </g>
    <g>
      <g>
        <circle class="cls-3" cx="32.15" cy="33.87" r="7.73"/>
        <path class="cls-1" d="M32.15,28.25c3.1,0,5.62,2.52,5.62,5.62s-2.52,5.62-5.62,5.62-5.62-2.52-5.62-5.62,2.52-5.62,5.62-5.62M32.15,26.14c-4.27,0-7.73,3.46-7.73,7.73s3.46,7.73,7.73,7.73,7.73-3.46,7.73-7.73-3.46-7.73-7.73-7.73h0Z"/>
      </g>
      <path class="cls-1" d="M31.09,34.89v2.11h-1.24v-5.99h2.34c.45,0,.85.08,1.19.25s.6.4.79.7.28.65.28,1.04c0,.59-.2,1.05-.6,1.39s-.96.51-1.67.51h-1.08ZM31.09,33.89h1.1c.33,0,.58-.08.75-.23s.26-.37.26-.66-.09-.53-.26-.71-.41-.27-.72-.28h-1.13v1.88Z"/>
    </g>
    <g>
      <g>
        <circle class="cls-3" cx="56.04" cy="33.87" r="7.73"/>
        <path class="cls-1" d="M56.04,28.25c3.1,0,5.62,2.52,5.62,5.62s-2.52,5.62-5.62,5.62-5.62-2.52-5.62-5.62,2.52-5.62,5.62-5.62M56.04,26.14c-4.27,0-7.73,3.46-7.73,7.73s3.46,7.73,7.73,7.73,7.73-3.46,7.73-7.73-3.46-7.73-7.73-7.73h0Z"/>
      </g>
      <path class="cls-1" d="M54.02,37v-5.99h2.1c.73,0,1.28.14,1.66.42s.56.69.56,1.22c0,.29-.08.55-.23.78s-.36.39-.63.49c.31.08.55.23.73.47s.27.52.27.86c0,.58-.18,1.01-.55,1.31s-.89.45-1.57.45h-2.33ZM55.25,33.52h.91c.62-.01.93-.26.93-.75,0-.27-.08-.47-.24-.59s-.41-.18-.75-.18h-.86v1.51ZM55.25,34.39v1.62h1.06c.29,0,.52-.07.68-.21s.24-.33.24-.57c0-.55-.28-.83-.85-.84h-1.13Z"/>
    </g>
    <g>
      <rect class="cls-1" x="39.02" y="32.82" width="10" height="2.11"/>
      <rect class="cls-1" x="43.04" y="21.33" width="2.11" height="13.54"/>
    </g>
  </g>
</svg>